<?xml version="1.0" encoding="UTF-8"?>
<svg xmlns="http://www.w3.org/2000/svg" width="1100" height="520" viewBox="0 0 1100 520">
<style>text { font-family: "Malgun Gothic", "Noto Sans KR", sans-serif; }</style>
<rect x="0" y="0" width="100%" height="100%" fill="#fdfcf5"/>
<text x="550" y="40" font-size="26" text-anchor="middle" fill="#4b3b1f">Concept Timeline (Monthly)</text>
<line x1="90" y1="430" x2="1010" y2="430" stroke="#d6cbb2" stroke-width="1.5"/>
<line x1="90" y1="90" x2="90" y2="430" stroke="#d6cbb2" stroke-width="1.5"/>
<line x1="90" y1="430.0" x2="1010" y2="430.0" stroke="#efe9d6" stroke-width="1"/>
<text x="78" y="434.0" font-size="12" text-anchor="end" fill="#7a6a4a">0</text>
<line x1="90" y1="362.0" x2="1010" y2="362.0" stroke="#efe9d6" stroke-width="1"/>
<text x="78" y="366.0" font-size="12" text-anchor="end" fill="#7a6a4a">570</text>
<line x1="90" y1="294.0" x2="1010" y2="294.0" stroke="#efe9d6" stroke-width="1"/>
<text x="78" y="298.0" font-size="12" text-anchor="end" fill="#7a6a4a">1140</text>
<line x1="90" y1="226.0" x2="1010" y2="226.0" stroke="#efe9d6" stroke-width="1"/>
<text x="78" y="230.0" font-size="12" text-anchor="end" fill="#7a6a4a">1711</text>
<line x1="90" y1="158.0" x2="1010" y2="158.0" stroke="#efe9d6" stroke-width="1"/>
<text x="78" y="162.0" font-size="12" text-anchor="end" fill="#7a6a4a">2281</text>
<line x1="90" y1="90.0" x2="1010" y2="90.0" stroke="#efe9d6" stroke-width="1"/>
<text x="78" y="94.0" font-size="12" text-anchor="end" fill="#7a6a4a">2851</text>
<text x="90.0" y="448" font-size="12" text-anchor="middle" fill="#6f5a3d">2023-03</text>
<line x1="90.0" y1="430" x2="90.0" y2="436" stroke="#b79e74" stroke-width="1"/>
<text x="192.22222222222223" y="448" font-size="12" text-anchor="middle" fill="#6f5a3d">2024-09</text>
<line x1="192.22222222222223" y1="430" x2="192.22222222222223" y2="436" stroke="#b79e74" stroke-width="1"/>
<text x="294.44444444444446" y="448" font-size="12" text-anchor="middle" fill="#6f5a3d">2025-03</text>
<line x1="294.44444444444446" y1="430" x2="294.44444444444446" y2="436" stroke="#b79e74" stroke-width="1"/>
<text x="396.66666666666663" y="448" font-size="12" text-anchor="middle" fill="#6f5a3d">2025-04</text>
<line x1="396.66666666666663" y1="430" x2="396.66666666666663" y2="436" stroke="#b79e74" stroke-width="1"/>
<text x="498.88888888888886" y="448" font-size="12" text-anchor="middle" fill="#6f5a3d">2025-05</text>
<line x1="498.88888888888886" y1="430" x2="498.88888888888886" y2="436" stroke="#b79e74" stroke-width="1"/>
<text x="601.1111111111111" y="448" font-size="12" text-anchor="middle" fill="#6f5a3d">2025-06</text>
<line x1="601.1111111111111" y1="430" x2="601.1111111111111" y2="436" stroke="#b79e74" stroke-width="1"/>
<text x="703.3333333333333" y="448" font-size="12" text-anchor="middle" fill="#6f5a3d">2025-07</text>
<line x1="703.3333333333333" y1="430" x2="703.3333333333333" y2="436" stroke="#b79e74" stroke-width="1"/>
<text x="805.5555555555555" y="448" font-size="12" text-anchor="middle" fill="#6f5a3d">2025-08</text>
<line x1="805.5555555555555" y1="430" x2="805.5555555555555" y2="436" stroke="#b79e74" stroke-width="1"/>
<text x="907.7777777777777" y="448" font-size="12" text-anchor="middle" fill="#6f5a3d">2025-09</text>
<line x1="907.7777777777777" y1="430" x2="907.7777777777777" y2="436" stroke="#b79e74" stroke-width="1"/>
<text x="1010.0" y="448" font-size="12" text-anchor="middle" fill="#6f5a3d">2025-10</text>
<line x1="1010.0" y1="430" x2="1010.0" y2="436" stroke="#b79e74" stroke-width="1"/>
<line x1="90.0" y1="430.0" x2="192.2" y2="430.0" stroke="#d97706" stroke-width="2" opacity="0.8"/>
<line x1="192.2" y1="430.0" x2="294.4" y2="430.0" stroke="#d97706" stroke-width="2" opacity="0.8"/>
<line x1="294.4" y1="430.0" x2="396.7" y2="281.8" stroke="#d97706" stroke-width="2" opacity="0.8"/>
<line x1="396.7" y1="281.8" x2="498.9" y2="228.0" stroke="#d97706" stroke-width="2" opacity="0.8"/>
<line x1="498.9" y1="228.0" x2="601.1" y2="317.1" stroke="#d97706" stroke-width="2" opacity="0.8"/>
<line x1="601.1" y1="317.1" x2="703.3" y2="387.9" stroke="#d97706" stroke-width="2" opacity="0.8"/>
<line x1="703.3" y1="387.9" x2="805.6" y2="373.8" stroke="#d97706" stroke-width="2" opacity="0.8"/>
<line x1="805.6" y1="373.8" x2="907.8" y2="353.9" stroke="#d97706" stroke-width="2" opacity="0.8"/>
<line x1="907.8" y1="353.9" x2="1010.0" y2="353.2" stroke="#d97706" stroke-width="2" opacity="0.8"/>
<circle cx="90.0" cy="430.0" r="3.8" fill="#d97706" stroke="#ffffff" stroke-width="1"/>
<circle cx="192.2" cy="430.0" r="3.8" fill="#d97706" stroke="#ffffff" stroke-width="1"/>
<circle cx="294.4" cy="430.0" r="3.8" fill="#d97706" stroke="#ffffff" stroke-width="1"/>
<circle cx="396.7" cy="281.8" r="3.8" fill="#d97706" stroke="#ffffff" stroke-width="1"/>
<text x="396.7" y="273.8" font-size="11" text-anchor="middle" fill="#d97706">1243</text>
<circle cx="498.9" cy="228.0" r="3.8" fill="#d97706" stroke="#ffffff" stroke-width="1"/>
<text x="498.9" y="220.0" font-size="11" text-anchor="middle" fill="#d97706">1694</text>
<circle cx="601.1" cy="317.1" r="3.8" fill="#d97706" stroke="#ffffff" stroke-width="1"/>
<text x="601.1" y="309.1" font-size="11" text-anchor="middle" fill="#d97706">947</text>
<circle cx="703.3" cy="387.9" r="3.8" fill="#d97706" stroke="#ffffff" stroke-width="1"/>
<text x="703.3" y="379.9" font-size="11" text-anchor="middle" fill="#d97706">353</text>
<circle cx="805.6" cy="373.8" r="3.8" fill="#d97706" stroke="#ffffff" stroke-width="1"/>
<text x="805.6" y="365.8" font-size="11" text-anchor="middle" fill="#d97706">471</text>
<circle cx="907.8" cy="353.9" r="3.8" fill="#d97706" stroke="#ffffff" stroke-width="1"/>
<text x="907.8" y="345.9" font-size="11" text-anchor="middle" fill="#d97706">638</text>
<circle cx="1010.0" cy="353.2" r="3.8" fill="#d97706" stroke="#ffffff" stroke-width="1"/>
<text x="1010.0" y="345.2" font-size="11" text-anchor="middle" fill="#d97706">644</text>
<line x1="90.0" y1="430.0" x2="192.2" y2="429.9" stroke="#2563eb" stroke-width="2" opacity="0.8"/>
<line x1="192.2" y1="429.9" x2="294.4" y2="429.4" stroke="#2563eb" stroke-width="2" opacity="0.8"/>
<line x1="294.4" y1="429.4" x2="396.7" y2="184.7" stroke="#2563eb" stroke-width="2" opacity="0.8"/>
<line x1="396.7" y1="184.7" x2="498.9" y2="90.0" stroke="#2563eb" stroke-width="2" opacity="0.8"/>
<line x1="498.9" y1="90.0" x2="601.1" y2="283.8" stroke="#2563eb" stroke-width="2" opacity="0.8"/>
<line x1="601.1" y1="283.8" x2="703.3" y2="365.8" stroke="#2563eb" stroke-width="2" opacity="0.8"/>
<line x1="703.3" y1="365.8" x2="805.6" y2="344.3" stroke="#2563eb" stroke-width="2" opacity="0.8"/>
<line x1="805.6" y1="344.3" x2="907.8" y2="335.9" stroke="#2563eb" stroke-width="2" opacity="0.8"/>
<line x1="907.8" y1="335.9" x2="1010.0" y2="346.3" stroke="#2563eb" stroke-width="2" opacity="0.8"/>
<circle cx="90.0" cy="430.0" r="3.8" fill="#2563eb" stroke="#ffffff" stroke-width="1"/>
<circle cx="192.2" cy="429.9" r="3.8" fill="#2563eb" stroke="#ffffff" stroke-width="1"/>
<text x="192.2" y="421.9" font-size="11" text-anchor="middle" fill="#2563eb">1</text>
<circle cx="294.4" cy="429.4" r="3.8" fill="#2563eb" stroke="#ffffff" stroke-width="1"/>
<text x="294.4" y="421.4" font-size="11" text-anchor="middle" fill="#2563eb">5</text>
<circle cx="396.7" cy="184.7" r="3.8" fill="#2563eb" stroke="#ffffff" stroke-width="1"/>
<text x="396.7" y="176.7" font-size="11" text-anchor="middle" fill="#2563eb">2057</text>
<circle cx="498.9" cy="90.0" r="3.8" fill="#2563eb" stroke="#ffffff" stroke-width="1"/>
<text x="498.9" y="82.0" font-size="11" text-anchor="middle" fill="#2563eb">2851</text>
<circle cx="601.1" cy="283.8" r="3.8" fill="#2563eb" stroke="#ffffff" stroke-width="1"/>
<text x="601.1" y="275.8" font-size="11" text-anchor="middle" fill="#2563eb">1226</text>
<circle cx="703.3" cy="365.8" r="3.8" fill="#2563eb" stroke="#ffffff" stroke-width="1"/>
<text x="703.3" y="357.8" font-size="11" text-anchor="middle" fill="#2563eb">538</text>
<circle cx="805.6" cy="344.3" r="3.8" fill="#2563eb" stroke="#ffffff" stroke-width="1"/>
<text x="805.6" y="336.3" font-size="11" text-anchor="middle" fill="#2563eb">719</text>
<circle cx="907.8" cy="335.9" r="3.8" fill="#2563eb" stroke="#ffffff" stroke-width="1"/>
<text x="907.8" y="327.9" font-size="11" text-anchor="middle" fill="#2563eb">789</text>
<circle cx="1010.0" cy="346.3" r="3.8" fill="#2563eb" stroke="#ffffff" stroke-width="1"/>
<text x="1010.0" y="338.3" font-size="11" text-anchor="middle" fill="#2563eb">702</text>
<line x1="90.0" y1="430.0" x2="192.2" y2="430.0" stroke="#10b981" stroke-width="2" opacity="0.8"/>
<line x1="192.2" y1="430.0" x2="294.4" y2="430.0" stroke="#10b981" stroke-width="2" opacity="0.8"/>
<line x1="294.4" y1="430.0" x2="396.7" y2="430.0" stroke="#10b981" stroke-width="2" opacity="0.8"/>
<line x1="396.7" y1="430.0" x2="498.9" y2="430.0" stroke="#10b981" stroke-width="2" opacity="0.8"/>
<line x1="498.9" y1="430.0" x2="601.1" y2="430.0" stroke="#10b981" stroke-width="2" opacity="0.8"/>
<line x1="601.1" y1="430.0" x2="703.3" y2="430.0" stroke="#10b981" stroke-width="2" opacity="0.8"/>
<line x1="703.3" y1="430.0" x2="805.6" y2="408.2" stroke="#10b981" stroke-width="2" opacity="0.8"/>
<line x1="805.6" y1="408.2" x2="907.8" y2="411.8" stroke="#10b981" stroke-width="2" opacity="0.8"/>
<line x1="907.8" y1="411.8" x2="1010.0" y2="385.6" stroke="#10b981" stroke-width="2" opacity="0.8"/>
<circle cx="90.0" cy="430.0" r="3.8" fill="#10b981" stroke="#ffffff" stroke-width="1"/>
<circle cx="192.2" cy="430.0" r="3.8" fill="#10b981" stroke="#ffffff" stroke-width="1"/>
<circle cx="294.4" cy="430.0" r="3.8" fill="#10b981" stroke="#ffffff" stroke-width="1"/>
<circle cx="396.7" cy="430.0" r="3.8" fill="#10b981" stroke="#ffffff" stroke-width="1"/>
<circle cx="498.9" cy="430.0" r="3.8" fill="#10b981" stroke="#ffffff" stroke-width="1"/>
<circle cx="601.1" cy="430.0" r="3.8" fill="#10b981" stroke="#ffffff" stroke-width="1"/>
<circle cx="703.3" cy="430.0" r="3.8" fill="#10b981" stroke="#ffffff" stroke-width="1"/>
<circle cx="805.6" cy="408.2" r="3.8" fill="#10b981" stroke="#ffffff" stroke-width="1"/>
<text x="805.6" y="400.2" font-size="11" text-anchor="middle" fill="#10b981">183</text>
<circle cx="907.8" cy="411.8" r="3.8" fill="#10b981" stroke="#ffffff" stroke-width="1"/>
<text x="907.8" y="403.8" font-size="11" text-anchor="middle" fill="#10b981">153</text>
<circle cx="1010.0" cy="385.6" r="3.8" fill="#10b981" stroke="#ffffff" stroke-width="1"/>
<text x="1010.0" y="377.6" font-size="11" text-anchor="middle" fill="#10b981">372</text>
<line x1="90.0" y1="428.2" x2="192.2" y2="429.8" stroke="#8b5cf6" stroke-width="2" opacity="0.8"/>
<line x1="192.2" y1="429.8" x2="294.4" y2="430.0" stroke="#8b5cf6" stroke-width="2" opacity="0.8"/>
<line x1="294.4" y1="430.0" x2="396.7" y2="429.6" stroke="#8b5cf6" stroke-width="2" opacity="0.8"/>
<line x1="396.7" y1="429.6" x2="498.9" y2="430.0" stroke="#8b5cf6" stroke-width="2" opacity="0.8"/>
<line x1="498.9" y1="430.0" x2="601.1" y2="429.8" stroke="#8b5cf6" stroke-width="2" opacity="0.8"/>
<line x1="601.1" y1="429.8" x2="703.3" y2="424.9" stroke="#8b5cf6" stroke-width="2" opacity="0.8"/>
<line x1="703.3" y1="424.9" x2="805.6" y2="423.4" stroke="#8b5cf6" stroke-width="2" opacity="0.8"/>
<line x1="805.6" y1="423.4" x2="907.8" y2="402.3" stroke="#8b5cf6" stroke-width="2" opacity="0.8"/>
<line x1="907.8" y1="402.3" x2="1010.0" y2="420.7" stroke="#8b5cf6" stroke-width="2" opacity="0.8"/>
<circle cx="90.0" cy="428.2" r="3.8" fill="#8b5cf6" stroke="#ffffff" stroke-width="1"/>
<text x="90.0" y="420.2" font-size="11" text-anchor="middle" fill="#8b5cf6">15</text>
<circle cx="192.2" cy="429.8" r="3.8" fill="#8b5cf6" stroke="#ffffff" stroke-width="1"/>
<text x="192.2" y="421.8" font-size="11" text-anchor="middle" fill="#8b5cf6">2</text>
<circle cx="294.4" cy="430.0" r="3.8" fill="#8b5cf6" stroke="#ffffff" stroke-width="1"/>
<circle cx="396.7" cy="429.6" r="3.8" fill="#8b5cf6" stroke="#ffffff" stroke-width="1"/>
<text x="396.7" y="421.6" font-size="11" text-anchor="middle" fill="#8b5cf6">3</text>
<circle cx="498.9" cy="430.0" r="3.8" fill="#8b5cf6" stroke="#ffffff" stroke-width="1"/>
<circle cx="601.1" cy="429.8" r="3.8" fill="#8b5cf6" stroke="#ffffff" stroke-width="1"/>
<text x="601.1" y="421.8" font-size="11" text-anchor="middle" fill="#8b5cf6">2</text>
<circle cx="703.3" cy="424.9" r="3.8" fill="#8b5cf6" stroke="#ffffff" stroke-width="1"/>
<text x="703.3" y="416.9" font-size="11" text-anchor="middle" fill="#8b5cf6">43</text>
<circle cx="805.6" cy="423.4" r="3.8" fill="#8b5cf6" stroke="#ffffff" stroke-width="1"/>
<text x="805.6" y="415.4" font-size="11" text-anchor="middle" fill="#8b5cf6">55</text>
<circle cx="907.8" cy="402.3" r="3.8" fill="#8b5cf6" stroke="#ffffff" stroke-width="1"/>
<text x="907.8" y="394.3" font-size="11" text-anchor="middle" fill="#8b5cf6">232</text>
<circle cx="1010.0" cy="420.7" r="3.8" fill="#8b5cf6" stroke="#ffffff" stroke-width="1"/>
<text x="1010.0" y="412.7" font-size="11" text-anchor="middle" fill="#8b5cf6">78</text>
<line x1="90.0" y1="430.0" x2="192.2" y2="430.0" stroke="#f43f5e" stroke-width="2" opacity="0.8"/>
<line x1="192.2" y1="430.0" x2="294.4" y2="429.9" stroke="#f43f5e" stroke-width="2" opacity="0.8"/>
<line x1="294.4" y1="429.9" x2="396.7" y2="346.5" stroke="#f43f5e" stroke-width="2" opacity="0.8"/>
<line x1="396.7" y1="346.5" x2="498.9" y2="372.0" stroke="#f43f5e" stroke-width="2" opacity="0.8"/>
<line x1="498.9" y1="372.0" x2="601.1" y2="384.9" stroke="#f43f5e" stroke-width="2" opacity="0.8"/>
<line x1="601.1" y1="384.9" x2="703.3" y2="406.6" stroke="#f43f5e" stroke-width="2" opacity="0.8"/>
<line x1="703.3" y1="406.6" x2="805.6" y2="411.9" stroke="#f43f5e" stroke-width="2" opacity="0.8"/>
<line x1="805.6" y1="411.9" x2="907.8" y2="400.4" stroke="#f43f5e" stroke-width="2" opacity="0.8"/>
<line x1="907.8" y1="400.4" x2="1010.0" y2="385.0" stroke="#f43f5e" stroke-width="2" opacity="0.8"/>
<circle cx="90.0" cy="430.0" r="3.8" fill="#f43f5e" stroke="#ffffff" stroke-width="1"/>
<circle cx="192.2" cy="430.0" r="3.8" fill="#f43f5e" stroke="#ffffff" stroke-width="1"/>
<circle cx="294.4" cy="429.9" r="3.8" fill="#f43f5e" stroke="#ffffff" stroke-width="1"/>
<text x="294.4" y="421.9" font-size="11" text-anchor="middle" fill="#f43f5e">1</text>
<circle cx="396.7" cy="346.5" r="3.8" fill="#f43f5e" stroke="#ffffff" stroke-width="1"/>
<text x="396.7" y="338.5" font-size="11" text-anchor="middle" fill="#f43f5e">700</text>
<circle cx="498.9" cy="372.0" r="3.8" fill="#f43f5e" stroke="#ffffff" stroke-width="1"/>
<text x="498.9" y="364.0" font-size="11" text-anchor="middle" fill="#f43f5e">486</text>
<circle cx="601.1" cy="384.9" r="3.8" fill="#f43f5e" stroke="#ffffff" stroke-width="1"/>
<text x="601.1" y="376.9" font-size="11" text-anchor="middle" fill="#f43f5e">378</text>
<circle cx="703.3" cy="406.6" r="3.8" fill="#f43f5e" stroke="#ffffff" stroke-width="1"/>
<text x="703.3" y="398.6" font-size="11" text-anchor="middle" fill="#f43f5e">196</text>
<circle cx="805.6" cy="411.9" r="3.8" fill="#f43f5e" stroke="#ffffff" stroke-width="1"/>
<text x="805.6" y="403.9" font-size="11" text-anchor="middle" fill="#f43f5e">152</text>
<circle cx="907.8" cy="400.4" r="3.8" fill="#f43f5e" stroke="#ffffff" stroke-width="1"/>
<text x="907.8" y="392.4" font-size="11" text-anchor="middle" fill="#f43f5e">248</text>
<circle cx="1010.0" cy="385.0" r="3.8" fill="#f43f5e" stroke="#ffffff" stroke-width="1"/>
<text x="1010.0" y="377.0" font-size="11" text-anchor="middle" fill="#f43f5e">377</text>
<line x1="90.0" y1="430.0" x2="192.2" y2="430.0" stroke="#14b8a6" stroke-width="2" opacity="0.8"/>
<line x1="192.2" y1="430.0" x2="294.4" y2="430.0" stroke="#14b8a6" stroke-width="2" opacity="0.8"/>
<line x1="294.4" y1="430.0" x2="396.7" y2="429.8" stroke="#14b8a6" stroke-width="2" opacity="0.8"/>
<line x1="396.7" y1="429.8" x2="498.9" y2="429.9" stroke="#14b8a6" stroke-width="2" opacity="0.8"/>
<line x1="498.9" y1="429.9" x2="601.1" y2="429.9" stroke="#14b8a6" stroke-width="2" opacity="0.8"/>
<line x1="601.1" y1="429.9" x2="703.3" y2="429.8" stroke="#14b8a6" stroke-width="2" opacity="0.8"/>
<line x1="703.3" y1="429.8" x2="805.6" y2="429.9" stroke="#14b8a6" stroke-width="2" opacity="0.8"/>
<line x1="805.6" y1="429.9" x2="907.8" y2="423.8" stroke="#14b8a6" stroke-width="2" opacity="0.8"/>
<line x1="907.8" y1="423.8" x2="1010.0" y2="429.9" stroke="#14b8a6" stroke-width="2" opacity="0.8"/>
<circle cx="90.0" cy="430.0" r="3.8" fill="#14b8a6" stroke="#ffffff" stroke-width="1"/>
<circle cx="192.2" cy="430.0" r="3.8" fill="#14b8a6" stroke="#ffffff" stroke-width="1"/>
<circle cx="294.4" cy="430.0" r="3.8" fill="#14b8a6" stroke="#ffffff" stroke-width="1"/>
<circle cx="396.7" cy="429.8" r="3.8" fill="#14b8a6" stroke="#ffffff" stroke-width="1"/>
<text x="396.7" y="421.8" font-size="11" text-anchor="middle" fill="#14b8a6">2</text>
<circle cx="498.9" cy="429.9" r="3.8" fill="#14b8a6" stroke="#ffffff" stroke-width="1"/>
<text x="498.9" y="421.9" font-size="11" text-anchor="middle" fill="#14b8a6">1</text>
<circle cx="601.1" cy="429.9" r="3.8" fill="#14b8a6" stroke="#ffffff" stroke-width="1"/>
<text x="601.1" y="421.9" font-size="11" text-anchor="middle" fill="#14b8a6">1</text>
<circle cx="703.3" cy="429.8" r="3.8" fill="#14b8a6" stroke="#ffffff" stroke-width="1"/>
<text x="703.3" y="421.8" font-size="11" text-anchor="middle" fill="#14b8a6">2</text>
<circle cx="805.6" cy="429.9" r="3.8" fill="#14b8a6" stroke="#ffffff" stroke-width="1"/>
<text x="805.6" y="421.9" font-size="11" text-anchor="middle" fill="#14b8a6">1</text>
<circle cx="907.8" cy="423.8" r="3.8" fill="#14b8a6" stroke="#ffffff" stroke-width="1"/>
<text x="907.8" y="415.8" font-size="11" text-anchor="middle" fill="#14b8a6">52</text>
<circle cx="1010.0" cy="429.9" r="3.8" fill="#14b8a6" stroke="#ffffff" stroke-width="1"/>
<text x="1010.0" y="421.9" font-size="11" text-anchor="middle" fill="#14b8a6">1</text>
<line x1="90.0" y1="430.0" x2="192.2" y2="430.0" stroke="#9333ea" stroke-width="2" opacity="0.8"/>
<line x1="192.2" y1="430.0" x2="294.4" y2="430.0" stroke="#9333ea" stroke-width="2" opacity="0.8"/>
<line x1="294.4" y1="430.0" x2="396.7" y2="429.2" stroke="#9333ea" stroke-width="2" opacity="0.8"/>
<line x1="396.7" y1="429.2" x2="498.9" y2="429.4" stroke="#9333ea" stroke-width="2" opacity="0.8"/>
<line x1="498.9" y1="429.4" x2="601.1" y2="430.0" stroke="#9333ea" stroke-width="2" opacity="0.8"/>
<line x1="601.1" y1="430.0" x2="703.3" y2="430.0" stroke="#9333ea" stroke-width="2" opacity="0.8"/>
<line x1="703.3" y1="430.0" x2="805.6" y2="429.9" stroke="#9333ea" stroke-width="2" opacity="0.8"/>
<line x1="805.6" y1="429.9" x2="907.8" y2="424.6" stroke="#9333ea" stroke-width="2" opacity="0.8"/>
<line x1="907.8" y1="424.6" x2="1010.0" y2="429.9" stroke="#9333ea" stroke-width="2" opacity="0.8"/>
<circle cx="90.0" cy="430.0" r="3.8" fill="#9333ea" stroke="#ffffff" stroke-width="1"/>
<circle cx="192.2" cy="430.0" r="3.8" fill="#9333ea" stroke="#ffffff" stroke-width="1"/>
<circle cx="294.4" cy="430.0" r="3.8" fill="#9333ea" stroke="#ffffff" stroke-width="1"/>
<circle cx="396.7" cy="429.2" r="3.8" fill="#9333ea" stroke="#ffffff" stroke-width="1"/>
<text x="396.7" y="421.2" font-size="11" text-anchor="middle" fill="#9333ea">7</text>
<circle cx="498.9" cy="429.4" r="3.8" fill="#9333ea" stroke="#ffffff" stroke-width="1"/>
<text x="498.9" y="421.4" font-size="11" text-anchor="middle" fill="#9333ea">5</text>
<circle cx="601.1" cy="430.0" r="3.8" fill="#9333ea" stroke="#ffffff" stroke-width="1"/>
<circle cx="703.3" cy="430.0" r="3.8" fill="#9333ea" stroke="#ffffff" stroke-width="1"/>
<circle cx="805.6" cy="429.9" r="3.8" fill="#9333ea" stroke="#ffffff" stroke-width="1"/>
<text x="805.6" y="421.9" font-size="11" text-anchor="middle" fill="#9333ea">1</text>
<circle cx="907.8" cy="424.6" r="3.8" fill="#9333ea" stroke="#ffffff" stroke-width="1"/>
<text x="907.8" y="416.6" font-size="11" text-anchor="middle" fill="#9333ea">45</text>
<circle cx="1010.0" cy="429.9" r="3.8" fill="#9333ea" stroke="#ffffff" stroke-width="1"/>
<text x="1010.0" y="421.9" font-size="11" text-anchor="middle" fill="#9333ea">1</text>
<rect x="830" y="100" width="14" height="14" fill="#d97706" rx="3"/>
<text x="850" y="111" font-size="13" fill="#4e3d25">감응</text>
<rect x="830" y="122" width="14" height="14" fill="#2563eb" rx="3"/>
<text x="850" y="133" font-size="13" fill="#4e3d25">리듬</text>
<rect x="830" y="144" width="14" height="14" fill="#10b981" rx="3"/>
<text x="850" y="155" font-size="13" fill="#4e3d25">루멘</text>
<rect x="830" y="166" width="14" height="14" fill="#8b5cf6" rx="3"/>
<text x="850" y="177" font-size="13" fill="#4e3d25">정반합</text>
<rect x="830" y="188" width="14" height="14" fill="#f43f5e" rx="3"/>
<text x="850" y="199" font-size="13" fill="#4e3d25">공명</text>
<rect x="830" y="210" width="14" height="14" fill="#14b8a6" rx="3"/>
<text x="850" y="221" font-size="13" fill="#4e3d25">성소</text>
<rect x="830" y="232" width="14" height="14" fill="#9333ea" rx="3"/>
<text x="850" y="243" font-size="13" fill="#4e3d25">광장</text>
</svg>