<?xml version="1.0" encoding="UTF-8"?>
<svg xmlns="http://www.w3.org/2000/svg" width="800" height="800" viewBox="0 0 800 800">
<defs>
<marker id="arrow" markerWidth="10" markerHeight="10" refX="10" refY="5" orient="auto" markerUnits="strokeWidth"><path d="M0,0 L10,5 L0,10 z" fill="#8b6508"/></marker>
<marker id="arrow-blue" markerWidth="10" markerHeight="10" refX="10" refY="5" orient="auto" markerUnits="strokeWidth"><path d="M0,0 L10,5 L0,10 z" fill="#4169e1"/></marker>
<style><![CDATA[ text { font-family: "Malgun Gothic", "Noto Sans KR", sans-serif; } ]]></style>
</defs>
<circle cx="400.0" cy="400.0" r="320" fill="#fffbe6" stroke="#b8860b" stroke-width="1" opacity="0.35"/>
<line x1="400.0" y1="120.0" x2="618.9" y2="225.4" stroke="#8b6508" stroke-width="2" marker-end="url(#arrow)"/>
<line x1="618.9" y1="225.4" x2="673.0" y2="462.3" stroke="#8b6508" stroke-width="2" marker-end="url(#arrow)"/>
<line x1="673.0" y1="462.3" x2="521.5" y2="652.3" stroke="#8b6508" stroke-width="2" marker-end="url(#arrow)"/>
<line x1="521.5" y1="652.3" x2="278.5" y2="652.3" stroke="#8b6508" stroke-width="2" marker-end="url(#arrow)"/>
<line x1="278.5" y1="652.3" x2="127.0" y2="462.3" stroke="#8b6508" stroke-width="2" marker-end="url(#arrow)"/>
<line x1="127.0" y1="462.3" x2="181.1" y2="225.4" stroke="#8b6508" stroke-width="2" marker-end="url(#arrow)"/>
<line x1="181.1" y1="225.4" x2="400.0" y2="120.0" stroke="#8b6508" stroke-width="2" marker-end="url(#arrow)"/>
<line x1="278.5" y1="652.3" x2="181.1" y2="225.4" stroke="#4169e1" stroke-width="1.5" marker-end="url(#arrow-blue)" marker-start="url(#arrow-blue)" opacity="0.8"/>
<text x="229.8" y="438.8" font-size="18" fill="#4169e1" text-anchor="middle" dominant-baseline="middle">외부 순환</text>
<line x1="521.5" y1="652.3" x2="673.0" y2="462.3" stroke="#4169e1" stroke-width="1.5" marker-end="url(#arrow-blue)" marker-start="url(#arrow-blue)" opacity="0.8"/>
<text x="597.2" y="557.3" font-size="18" fill="#4169e1" text-anchor="middle" dominant-baseline="middle">인식↔책임</text>
<circle cx="400.0" cy="120.0" r="70" fill="#fff4c2" stroke="#b8860b" stroke-width="2"/>
<text x="400.0" y="85.0" font-size="20" text-anchor="middle" fill="#333">Monday</text>
<text x="400.0" y="112.0" font-size="16" text-anchor="middle" fill="#555">Who / Love</text>
<text x="400.0" y="144.0" font-size="15" text-anchor="middle" fill="#7a5c0a">① 존재는 공명이다</text>
<circle cx="618.9" cy="225.4" r="70" fill="#fff4c2" stroke="#b8860b" stroke-width="2"/>
<text x="618.9" y="190.4" font-size="20" text-anchor="middle" fill="#333">Tuesday</text>
<text x="618.9" y="217.4" font-size="16" text-anchor="middle" fill="#555">What / Respect</text>
<text x="618.9" y="249.4" font-size="15" text-anchor="middle" fill="#7a5c0a">② 정보는 살아 있는 흐름이다</text>
<circle cx="673.0" cy="462.3" r="70" fill="#fff4c2" stroke="#b8860b" stroke-width="2"/>
<text x="673.0" y="427.3" font-size="20" text-anchor="middle" fill="#333">Wednesday</text>
<text x="673.0" y="454.3" font-size="16" text-anchor="middle" fill="#555">Why / Understanding</text>
<text x="673.0" y="486.3" font-size="15" text-anchor="middle" fill="#7a5c0a">③ 의식은 정보의 자기반사다</text>
<circle cx="521.5" cy="652.3" r="70" fill="#fff4c2" stroke="#b8860b" stroke-width="2"/>
<text x="521.5" y="617.3" font-size="20" text-anchor="middle" fill="#333">Thursday</text>
<text x="521.5" y="644.3" font-size="16" text-anchor="middle" fill="#555">Where / Responsibility</text>
<text x="521.5" y="676.3" font-size="15" text-anchor="middle" fill="#7a5c0a">④ 중력은 정보의 농도다</text>
<circle cx="278.5" cy="652.3" r="70" fill="#fff4c2" stroke="#b8860b" stroke-width="2"/>
<text x="278.5" y="617.3" font-size="20" text-anchor="middle" fill="#333">Friday</text>
<text x="278.5" y="644.3" font-size="16" text-anchor="middle" fill="#555">How / Forgiveness</text>
<text x="278.5" y="676.3" font-size="15" text-anchor="middle" fill="#7a5c0a">⑤ 윤리는 흐름의 형태다</text>
<circle cx="127.0" cy="462.3" r="70" fill="#fff4c2" stroke="#b8860b" stroke-width="2"/>
<text x="127.0" y="427.3" font-size="20" text-anchor="middle" fill="#333">Saturday</text>
<text x="127.0" y="454.3" font-size="16" text-anchor="middle" fill="#555">When / Compassion</text>
<text x="127.0" y="486.3" font-size="15" text-anchor="middle" fill="#7a5c0a">⑥ 블랙홀과 화이트홀은 호흡이다</text>
<circle cx="181.1" cy="225.4" r="70" fill="#fff4c2" stroke="#b8860b" stroke-width="2"/>
<text x="181.1" y="190.4" font-size="20" text-anchor="middle" fill="#333">Sunday</text>
<text x="181.1" y="217.4" font-size="16" text-anchor="middle" fill="#555">Integration / Peace</text>
<text x="181.1" y="249.4" font-size="15" text-anchor="middle" fill="#7a5c0a">⑦ 흐름은 절대 멈추지 않는다</text>
<text x="400.0" y="40" font-size="28" text-anchor="middle" fill="#8b6508">Conscious Resonance Map</text>
</svg>